<svg width="93" height="633" viewBox="0 0 93 633" fill="none" xmlns="http://www.w3.org/2000/svg">
<path d="M62.8085 540.59C81.5818 540.59 90.9685 552.622 90.9685 576.686V629.422C90.9685 630.36 90.6271 631.171 89.9445 631.854C89.2618 632.536 88.4511 632.878 87.5125 632.878H4.82447C3.88581 632.878 3.07514 632.536 2.39247 631.854C1.7098 631.171 1.36847 630.36 1.36847 629.422L1.36847 577.966C1.36847 565.848 3.58714 556.931 8.02448 551.214C12.3765 545.411 18.9898 542.51 27.8645 542.51H28.2485C32.3445 542.51 35.8431 543.619 38.7445 545.838C41.6458 548.056 43.4805 550.36 44.2485 552.75C45.2725 549.422 47.5338 546.563 51.0325 544.174C54.4458 541.784 58.3711 540.59 62.8085 540.59ZM56.4085 599.598H68.9525V581.038C68.9525 579.075 68.3125 577.624 67.0325 576.686C65.6671 575.662 64.1738 575.15 62.5525 575.15H62.4245C60.8031 575.15 59.3951 575.704 58.2005 576.814C57.0058 577.838 56.4085 579.246 56.4085 581.038V599.598ZM33.2405 578.606C31.9605 577.667 30.5525 577.198 29.0165 577.198C27.4805 577.198 26.1578 577.667 25.0485 578.606C23.9391 579.459 23.3845 580.739 23.3845 582.446L23.3845 599.598H35.0325L35.0325 582.446C35.0325 580.739 34.4351 579.459 33.2405 578.606ZM64.7285 482.528V438.88C64.7285 437.941 65.0698 437.13 65.7525 436.448C66.4351 435.765 67.2458 435.424 68.1845 435.424H87.5125C88.4511 435.424 89.2618 435.765 89.9445 436.448C90.6271 437.13 90.9685 437.941 90.9685 438.88V513.632C90.9685 514.57 90.6271 515.381 89.9445 516.064C89.2618 516.746 88.4511 517.088 87.5125 517.088H4.82447C3.88581 517.088 3.07514 516.746 2.39247 516.064C1.7098 515.381 1.36847 514.57 1.36847 513.632L1.36847 485.984C1.36847 485.045 1.7098 484.234 2.39247 483.552C3.07514 482.869 3.88581 482.528 4.82447 482.528H64.7285ZM38.3605 324.242H53.9765C62.7658 324.242 70.1045 326.375 75.9925 330.642C81.8805 334.908 86.0618 340.498 88.5365 347.41C91.0111 354.322 92.2485 362.471 92.2485 371.858C92.2485 381.244 91.0111 389.394 88.5365 396.306C86.0618 403.218 81.8805 408.807 75.9925 413.074C70.1045 417.34 62.6805 419.474 53.7205 419.474H38.6165C25.7311 419.474 16.0885 415.079 9.68847 406.29C3.28847 397.415 0.0884705 385.938 0.0884705 371.858C0.0884705 357.778 3.28847 346.343 9.68847 337.554C16.0885 328.679 25.6458 324.242 38.3605 324.242ZM35.9285 384.914H56.4085C59.9071 384.914 62.5951 383.762 64.4725 381.458C66.3498 379.068 67.2885 375.868 67.2885 371.858C67.2885 367.847 66.3498 364.69 64.4725 362.386C62.5098 359.996 59.7791 358.802 56.2805 358.802H36.0565C32.5578 358.802 29.8698 359.996 27.9925 362.386C26.0298 364.69 25.0485 367.847 25.0485 371.858C25.0485 375.868 25.9871 379.068 27.8645 381.458C29.7418 383.762 32.4298 384.914 35.9285 384.914ZM1.36847 246.852V223.044C1.36847 222.105 1.7098 221.294 2.39247 220.612C3.07514 219.929 3.88581 219.588 4.82447 219.588H87.5125C88.4511 219.588 89.2618 219.929 89.9445 220.612C90.6271 221.294 90.9685 222.105 90.9685 223.044V243.652C90.9685 245.7 90.0725 247.406 88.2805 248.772L52.6965 276.676H87.5125C88.4511 276.676 89.2618 277.017 89.9445 277.7C90.6271 278.382 90.9685 279.193 90.9685 280.132L90.9685 303.94C90.9685 304.878 90.6271 305.689 89.9445 306.372C89.2618 307.054 88.4511 307.396 87.5125 307.396H4.82447C3.88581 307.396 3.07514 307.054 2.39247 306.372C1.7098 305.689 1.36847 304.878 1.36847 303.94V283.204C1.36847 281.156 2.2218 279.492 3.92847 278.212L42.4565 250.308H4.82447C3.88581 250.308 3.07514 249.966 2.39247 249.284C1.7098 248.601 1.36847 247.79 1.36847 246.852ZM1.36847 195.574V154.742C1.36847 145.355 2.6058 137.206 5.08047 130.294C7.55514 123.382 11.7365 117.792 17.6245 113.526C23.5125 109.259 30.8511 107.126 39.6405 107.126H52.6965C66.3498 107.126 76.2911 111.734 82.5205 120.95C88.1525 129.398 90.9685 140.662 90.9685 154.742V195.574C90.9685 196.512 90.6271 197.323 89.9445 198.006C89.2618 198.688 88.4511 199.03 87.5125 199.03H4.82447C3.88581 199.03 3.07514 198.688 2.39247 198.006C1.7098 197.323 1.36847 196.512 1.36847 195.574ZM26.3285 165.75H66.0085V154.102C66.0085 150.091 65.0698 146.934 63.1925 144.63C61.2298 142.24 58.4991 141.046 55.0005 141.046H37.3365C33.8378 141.046 31.1498 142.24 29.2725 144.63C27.3098 146.934 26.3285 150.091 26.3285 154.102V165.75ZM66.0085 55.2078V4.13581C66.0085 3.19714 66.3498 2.38647 67.0325 1.70381C67.7151 1.02114 68.5258 0.67981 69.4645 0.67981H87.5125C88.4511 0.67981 89.2618 1.02114 89.9445 1.70381C90.6271 2.38647 90.9685 3.19714 90.9685 4.13581L90.9685 85.0318C90.9685 85.9705 90.6271 86.7811 89.9445 87.4638C89.2618 88.1465 88.4511 88.4878 87.5125 88.4878H4.82447C3.88581 88.4878 3.07514 88.1465 2.39247 87.4638C1.7098 86.7811 1.36847 85.9705 1.36847 85.0318L1.36847 5.41581C1.36847 4.47714 1.7098 3.66647 2.39247 2.98381C3.07514 2.30114 3.88581 1.95981 4.82447 1.95981H22.8725C23.8111 1.95981 24.6218 2.30114 25.3045 2.98381C25.9871 3.66647 26.3285 4.47714 26.3285 5.41581L26.3285 55.2078H34.3925V12.4558C34.3925 11.5171 34.7338 10.7065 35.4165 10.0238C36.0991 9.34114 36.9098 8.99981 37.8485 8.99981H54.4885C55.4271 8.99981 56.2378 9.34114 56.9205 10.0238C57.6031 10.7065 57.9445 11.5171 57.9445 12.4558V55.2078H66.0085Z" fill="#F4AF0A"/>
</svg>
