<svg width="92" height="524" viewBox="0 0 92 524" fill="none" xmlns="http://www.w3.org/2000/svg">
<path d="M61.8085 431.715C80.5818 431.715 89.9685 443.747 89.9685 467.811V520.547C89.9685 521.485 89.6272 522.296 88.9445 522.979C88.2618 523.661 87.4512 524.003 86.5125 524.003H3.8245C2.88584 524.003 2.07517 523.661 1.3925 522.979C0.709834 522.296 0.3685 521.485 0.3685 520.547L0.3685 469.091C0.3685 456.973 2.58717 448.056 7.02451 442.339C11.3765 436.536 17.9898 433.635 26.8645 433.635H27.2485C31.3445 433.635 34.8432 434.744 37.7445 436.963C40.6458 439.181 42.4805 441.485 43.2485 443.875C44.2725 440.547 46.5338 437.688 50.0325 435.299C53.4458 432.909 57.3712 431.715 61.8085 431.715ZM55.4085 490.723H67.9525V472.163C67.9525 470.2 67.3125 468.749 66.0325 467.811C64.6672 466.787 63.1738 466.275 61.5525 466.275H61.4245C59.8032 466.275 58.3952 466.829 57.2005 467.939C56.0058 468.963 55.4085 470.371 55.4085 472.163V490.723ZM32.2405 469.731C30.9605 468.792 29.5525 468.323 28.0165 468.323C26.4805 468.323 25.1578 468.792 24.0485 469.731C22.9392 470.584 22.3845 471.864 22.3845 473.571L22.3845 490.723H34.0325L34.0325 473.571C34.0325 471.864 33.4352 470.584 32.2405 469.731ZM86.0005 320.917C86.3418 320.746 86.8112 320.661 87.4085 320.661C88.0058 320.661 88.6032 320.959 89.2005 321.557C89.7125 322.069 89.9685 322.709 89.9685 323.477V352.533C89.9685 355.093 88.9018 356.885 86.7685 357.909L61.4245 369.173V379.925H86.5125C87.4512 379.925 88.2618 380.266 88.9445 380.949C89.6272 381.631 89.9685 382.442 89.9685 383.381V411.029C89.9685 411.967 89.6272 412.778 88.9445 413.461C88.2618 414.143 87.4512 414.485 86.5125 414.485H3.8245C2.88584 414.485 2.07517 414.143 1.3925 413.461C0.709834 412.778 0.3685 411.967 0.3685 411.029L0.3685 361.237C0.3685 349.546 3.14183 340.287 8.6885 333.461C14.2352 326.634 21.7872 323.221 31.3445 323.221C42.9498 323.221 51.3552 327.701 56.5605 336.661L86.0005 320.917ZM24.1765 379.925H37.7445V363.925C37.7445 362.047 37.1472 360.597 35.9525 359.573C34.6725 358.549 33.0938 358.037 31.2165 358.037C29.3392 358.037 27.7178 358.549 26.3525 359.573C24.9018 360.511 24.1765 361.962 24.1765 363.925V379.925ZM81.9045 228.935C88.1338 237.297 91.2485 248.647 91.2485 262.983C91.2485 277.319 88.1338 288.711 81.9045 297.159C75.6752 305.521 65.9472 309.703 52.7205 309.703H3.8245C2.88584 309.703 2.07517 309.361 1.3925 308.679C0.709834 307.996 0.3685 307.185 0.3685 306.247V279.495C0.3685 278.556 0.709834 277.745 1.3925 277.063C2.07517 276.38 2.88584 276.039 3.8245 276.039H54.7685C58.2672 276.039 60.9552 274.887 62.8325 272.583C64.7098 270.193 65.6485 266.993 65.6485 262.983C65.6485 258.972 64.7098 255.815 62.8325 253.511C60.9552 251.121 58.2672 249.927 54.7685 249.927H3.8245C2.88584 249.927 2.07517 249.585 1.3925 248.903C0.709834 248.22 0.3685 247.409 0.3685 246.471V219.719C0.3685 218.78 0.709834 217.969 1.3925 217.287C2.07517 216.604 2.88584 216.263 3.8245 216.263H52.7205C65.9472 216.263 75.6752 220.487 81.9045 228.935ZM0.3685 137.977V114.169C0.3685 113.23 0.709834 112.419 1.3925 111.737C2.07517 111.054 2.88584 110.713 3.8245 110.713H86.5125C87.4512 110.713 88.2618 111.054 88.9445 111.737C89.6272 112.419 89.9685 113.23 89.9685 114.169V134.777C89.9685 136.825 89.0725 138.531 87.2805 139.897L51.6965 167.801H86.5125C87.4512 167.801 88.2618 168.142 88.9445 168.825C89.6272 169.507 89.9685 170.318 89.9685 171.257L89.9685 195.065C89.9685 196.003 89.6272 196.814 88.9445 197.497C88.2618 198.179 87.4512 198.521 86.5125 198.521H3.8245C2.88584 198.521 2.07517 198.179 1.3925 197.497C0.709834 196.814 0.3685 196.003 0.3685 195.065V174.329C0.3685 172.281 1.22183 170.617 2.9285 169.337L41.4565 141.433H3.8245C2.88584 141.433 2.07517 141.091 1.3925 140.409C0.709834 139.726 0.3685 138.915 0.3685 137.977ZM65.0085 55.0828V4.01081C65.0085 3.07214 65.3498 2.26147 66.0325 1.57881C66.7152 0.896144 67.5258 0.55481 68.4645 0.55481H86.5125C87.4512 0.55481 88.2618 0.896144 88.9445 1.57881C89.6272 2.26147 89.9685 3.07214 89.9685 4.01081V84.9068C89.9685 85.8455 89.6272 86.6561 88.9445 87.3388C88.2618 88.0215 87.4512 88.3628 86.5125 88.3628H3.8245C2.88584 88.3628 2.07517 88.0215 1.3925 87.3388C0.709834 86.6561 0.3685 85.8455 0.3685 84.9068L0.3685 5.29081C0.3685 4.35214 0.709834 3.54147 1.3925 2.85881C2.07517 2.17614 2.88584 1.83481 3.8245 1.83481H21.8725C22.8112 1.83481 23.6218 2.17614 24.3045 2.85881C24.9872 3.54147 25.3285 4.35214 25.3285 5.29081L25.3285 55.0828H33.3925L33.3925 12.3308C33.3925 11.3921 33.7338 10.5815 34.4165 9.89881C35.0992 9.21614 35.9098 8.87481 36.8485 8.87481H53.4885C54.4272 8.87481 55.2378 9.21614 55.9205 9.89881C56.6032 10.5815 56.9445 11.3921 56.9445 12.3308V55.0828H65.0085Z" fill="#E30613"/>
</svg>
