<?xml version="1.0" encoding="UTF-8"?>
<svg id="Calque_2" data-name="Calque 2" xmlns="http://www.w3.org/2000/svg" viewBox="0 0 105.69 88.04">
  <defs>
    <style>
      .cls-1 {
        fill: #fff;
        stroke-width: 0px;
      }
    </style>
  </defs>
  <g id="Calque_1-2" data-name="Calque 1">
    <path class="cls-1" d="M0,24.28C0,10.69,9.86.94,23.23.94s23.23,9.75,23.23,23.34-9.75,23.11-23.23,23.11S-.11,37.64,0,24.28ZM36.24,24.28c0-7.56-5.46-13.13-12.9-13.13s-13.13,5.58-13.13,13.13,5.58,12.88,13.13,12.88,12.9-5.34,12.9-12.88ZM25.09,87.69l-3.6-2.56L81.54,0l3.83,2.56L25.09,87.69ZM59.24,64.93c.12-13.59,9.86-23.34,23.23-23.34s23.23,9.75,23.23,23.34-9.75,23.11-23.23,23.11-23.23-9.75-23.23-23.11ZM95.48,64.93c0-7.56-5.46-13.13-12.9-13.13s-13.13,5.58-13.13,13.13,5.46,12.88,13.13,12.88,12.9-5.35,12.9-12.88Z"/>
  </g>
</svg>