<svg width="50" height="50" viewBox="0 0 50 50" fill="none" xmlns="http://www.w3.org/2000/svg">
<path d="M43.0067 50.0078H6.99346C5.1387 50.0078 3.3599 49.271 2.04838 47.9595C0.736863 46.648 6.10352e-05 44.8692 6.10352e-05 43.0144V7.00121C6.10352e-05 5.14645 0.736863 3.36765 2.04838 2.05613C3.3599 0.744615 5.1387 0.0078125 6.99346 0.0078125H43.0067C44.8614 0.0078125 46.6402 0.744615 47.9517 2.05613C49.2633 3.36765 50.0001 5.14645 50.0001 7.00121V43.0144C50.0001 44.8692 49.2633 46.648 47.9517 47.9595C46.6402 49.271 44.8614 50.0078 43.0067 50.0078ZM6.99346 2.80517C5.8806 2.80517 4.81332 3.24725 4.02641 4.03416C3.2395 4.82107 2.79742 5.88835 2.79742 7.00121V43.0144C2.79742 44.1273 3.2395 45.1946 4.02641 45.9815C4.81332 46.7684 5.8806 47.2105 6.99346 47.2105H43.0067C44.1195 47.2105 45.1868 46.7684 45.9737 45.9815C46.7606 45.1946 47.2027 44.1273 47.2027 43.0144V7.00121C47.2027 5.88835 46.7606 4.82107 45.9737 4.03416C45.1868 3.24725 44.1195 2.80517 43.0067 2.80517H6.99346Z" fill="white"/>
<path d="M25 37.8586C22.4583 37.8558 19.9744 37.0996 17.8623 35.6854C15.7503 34.2711 14.105 32.2625 13.1343 29.9134C12.1637 27.5642 11.9113 24.98 12.4091 22.4875C12.9068 19.9949 14.1324 17.7059 15.9309 15.9098C17.7294 14.1136 20.02 12.891 22.5132 12.3965C25.0064 11.902 27.5903 12.1578 29.9382 13.1315C32.286 14.1052 34.2925 15.7531 35.704 17.867C37.1154 19.9809 37.8684 22.4658 37.8679 25.0075C37.8634 28.4174 36.5058 31.6861 34.0931 34.0956C31.6803 36.5052 28.4099 37.8586 25 37.8586ZM25 14.937C23.0122 14.9398 21.0699 15.5316 19.4182 16.6377C17.7666 17.7438 16.4798 19.3145 15.7204 21.1516C14.9609 22.9886 14.763 25.0094 15.1514 26.9589C15.5399 28.9084 16.4974 30.699 17.903 32.1046C19.3086 33.5102 21.0992 34.4677 23.0487 34.8561C24.9981 35.2446 27.019 35.0466 28.856 34.2872C30.693 33.5278 32.2638 32.241 33.3699 30.5894C34.476 28.9377 35.0678 26.9953 35.0705 25.0075C35.0705 22.3367 34.0095 19.7752 32.121 17.8866C30.2324 15.998 27.6709 14.937 25 14.937Z" fill="white"/>
<path d="M39.5463 13.5529C41.2072 13.5529 42.5535 12.2065 42.5535 10.5457C42.5535 8.88493 41.2072 7.53857 39.5463 7.53857C37.8855 7.53857 36.5392 8.88493 36.5392 10.5457C36.5392 12.2065 37.8855 13.5529 39.5463 13.5529Z" fill="white"/>
</svg>
