<svg width="90" height="315" viewBox="0 0 90 315" fill="none" xmlns="http://www.w3.org/2000/svg">
<path d="M26.6085 229.657V252.825H63.7285V229.657C63.7285 228.718 64.0698 227.907 64.7525 227.225C65.4352 226.542 66.2458 226.201 67.1845 226.201H86.5125C87.4512 226.201 88.2618 226.542 88.9445 227.225C89.6272 227.907 89.9685 228.718 89.9685 229.657V310.809C89.9685 311.747 89.6272 312.558 88.9445 313.241C88.2618 313.923 87.4512 314.265 86.5125 314.265H67.1845C66.2458 314.265 65.4352 313.923 64.7525 313.241C64.0698 312.558 63.7285 311.747 63.7285 310.809V287.385H26.6085V310.809C26.6085 311.747 26.2672 312.558 25.5845 313.241C24.9018 313.923 24.0912 314.265 23.1525 314.265H3.8245C2.88584 314.265 2.07517 313.923 1.3925 313.241C0.709834 312.558 0.3685 311.747 0.3685 310.809L0.3685 229.657C0.3685 228.718 0.709834 227.907 1.3925 227.225C2.07517 226.542 2.88584 226.201 3.8245 226.201H23.1525C24.0912 226.201 24.9018 226.542 25.5845 227.225C26.2672 227.907 26.6085 228.718 26.6085 229.657ZM0.3685 196.299L0.3685 148.427C0.3685 136.309 3.3125 126.709 9.2005 119.627C15.0885 112.544 22.6405 109.003 31.8565 109.003C41.0725 109.003 48.4112 111.989 53.8725 117.963C59.2485 123.936 61.9365 134.091 61.9365 148.427V165.323H86.5125C87.4512 165.323 88.2618 165.664 88.9445 166.347C89.6272 167.029 89.9685 167.84 89.9685 168.779V196.299C89.9685 197.237 89.6272 198.048 88.9445 198.731C88.2618 199.413 87.4512 199.755 86.5125 199.755H3.8245C2.88584 199.755 2.07517 199.413 1.3925 198.731C0.709834 198.048 0.3685 197.237 0.3685 196.299ZM24.1765 165.195H38.2565V148.939C38.2565 146.976 37.6592 145.397 36.4645 144.203C35.2698 142.923 33.6058 142.283 31.4725 142.283C29.3392 142.283 27.5898 142.88 26.2245 144.075C24.8592 145.269 24.1765 146.891 24.1765 148.939L24.1765 165.195ZM89.9685 76.9248V101.117C89.9685 101.885 89.7125 102.567 89.2005 103.165C88.6032 103.677 88.0485 103.933 87.5365 103.933C87.0245 103.933 86.6405 103.89 86.3845 103.805L4.5925 75.9008C1.7765 75.1328 0.3685 73.2128 0.3685 70.1408L0.3685 34.5568C0.3685 31.4848 1.7765 29.5648 4.5925 28.7968L86.3845 0.892807C86.6405 0.807475 87.0245 0.764809 87.5365 0.764809C88.0485 0.764809 88.6032 1.06347 89.2005 1.6608C89.7125 2.17281 89.9685 2.81281 89.9685 3.58081V27.7728C89.9685 30.5035 88.5178 32.4235 85.6165 33.5328L76.6565 36.7328V67.9648L85.6165 71.1648C88.5178 72.2741 89.9685 74.1941 89.9685 76.9248ZM51.6965 43.2608L25.0725 52.3488L51.6965 61.4368V43.2608Z" fill="#57B999"/>
</svg>
