<?xml version="1.0" encoding="UTF-8"?>
<svg id="Calque_1" data-name="Calque 1" xmlns="http://www.w3.org/2000/svg" version="1.1" viewBox="0 0 818 150">
  <defs>
    <style>
      .cls-1 {
        fill: #fff;
        stroke-width: 0px;
      }
    </style>
  </defs>
  <path class="cls-1" d="M.3,145.8V4.2h29.7v116h51.4v25.7H.3Z"/>
  <path class="cls-1" d="M106.3,145.8V4.2h29.7v141.7h-29.7Z"/>
  <path class="cls-1" d="M164,75.1C164,28.9,188.5,0,227.8,0s53.2,20.1,58,53l-27.5,5.2c-3.4-20.3-14.5-32.5-30.5-32.5s-34.1,18.7-34.1,49.4,14.7,49,38.3,49,33.1-14.3,36.5-37.9l27.9,4.6c-4.6,36.3-29.7,59.2-64.5,59.2s-67.7-28.9-67.7-74.9h0Z"/>
  <path class="cls-1" d="M311.6,50.9c0-13.6,9.9-23.3,23.2-23.3s23.2,9.7,23.2,23.3-9.7,23.1-23.2,23.1-23.3-9.7-23.2-23.1ZM347.9,50.9c0-7.6-5.5-13.1-12.9-13.1s-13.1,5.6-13.1,13.1,5.6,12.9,13.1,12.9,12.9-5.3,12.9-12.9ZM336.7,114.3l-3.6-2.6,60-85.1,3.8,2.6-60.3,85.1ZM370.9,91.6c.1-13.6,9.9-23.3,23.2-23.3s23.2,9.7,23.2,23.3-9.7,23.1-23.2,23.1-23.2-9.7-23.2-23.1ZM407.1,91.6c0-7.6-5.5-13.1-12.9-13.1s-13.1,5.6-13.1,13.1,5.5,12.9,13.1,12.9,12.9-5.3,12.9-12.9Z"/>
  <path class="cls-1" d="M508.9,128.9l-6.2-24.3c-2.2-8.4-8-14.3-15.5-14.3h-17.7v55.6h-29.7V4.2h58c31.5,0,51.4,16.9,51.4,43.6s-11.2,32.7-30.3,37.3v.2c7.4,3.2,11,9.4,13,17.5l4.6,18.7c1,4.6,3,7.6,6.6,7.6s5.8-2,8.6-5.8l7.4,14.5c-6.4,7.2-15.9,11.4-25.7,11.4s-21.3-8.2-24.3-20.3h0ZM469.5,69.1h25.9c14.5,0,24.1-8.2,24.1-20.9s-9.6-21.3-24.1-21.3h-25.9v42.2Z"/>
  <path class="cls-1" d="M581.6,145.8V4.2h36.7l50.6,106.2h.4V4.2h27.9v141.7h-36.9l-50.6-105.8h-.4v105.8h-27.7Z"/>
  <path class="cls-1" d="M729.7,145.8V4.2h86.1v24.3h-57.4v33.9h49.4v21.5h-49.4v37.9h59.4v24.1h-88.1Z"/>
</svg>