<svg width="44" height="50" viewBox="0 0 44 50" fill="none" xmlns="http://www.w3.org/2000/svg">
<path d="M41.3993 11.7362C38.9065 11.188 36.6514 9.86425 34.9576 7.95484C33.2639 6.04543 32.2185 3.64854 31.9716 1.10813V0.0078125H23.3441V34.1927C23.3459 35.7095 22.8703 37.1885 21.9848 38.42C21.0993 39.6516 19.8488 40.5733 18.4103 41.0546C16.9719 41.536 15.4185 41.5525 13.9701 41.1019C12.5217 40.6513 11.2518 39.7564 10.3403 38.544C9.52373 37.4708 9.02368 36.1905 8.89675 34.8479C8.76982 33.5053 9.02107 32.154 9.62208 30.9468C10.2231 29.7395 11.1499 28.7245 12.2977 28.0166C13.4455 27.3086 14.7685 26.9359 16.117 26.9406C16.8628 26.9363 17.6049 27.046 18.3177 27.2657V18.5132C17.4882 18.4104 16.6524 18.3687 15.8169 18.3881C12.7393 18.4704 9.75247 19.4483 7.22215 21.2021C4.69183 22.956 2.72787 25.4096 1.57075 28.2626C0.413629 31.1156 0.113582 34.2441 0.70735 37.265C1.30112 40.2859 2.76293 43.0681 4.91377 45.2709C7.11813 47.5121 9.93896 49.0473 13.0179 49.6817C16.0967 50.316 19.2947 50.0207 22.2054 48.8334C25.1161 47.6461 27.6082 45.6203 29.3649 43.0134C31.1217 40.4065 32.0638 37.3362 32.0716 34.1927V16.6876C35.5513 19.1732 39.7239 20.5029 44.0001 20.4887V11.9863C43.1601 11.9897 42.322 11.9059 41.4994 11.7362H41.3993Z" fill="white"/>
</svg>
